<svg viewBox="0 0 1300 1300" fill="none" xmlns="http://www.w3.org/2000/svg">
<g clip-path="url(#clip0_1_3391)">
<path d="M649.823 -0.00012207C1008.66 -0.00012207 1299.55 290.65 1299.55 649.185C1299.55 1007.72 1008.66 1298.37 649.823 1298.37C290.987 1298.37 0.0927734 1007.72 0.0927734 649.185C0.0927734 290.65 290.987 -0.00012207 649.823 -0.00012207Z" fill="black"/>
<path d="M649.824 1206.34C957.38 1206.34 1206.7 957.229 1206.7 649.93C1206.7 342.631 957.38 93.5166 649.824 93.5166C342.268 93.5166 92.9434 342.631 92.9434 649.93C92.9434 957.229 342.268 1206.34 649.824 1206.34Z" fill="black"/>
<path d="M649.824 1206.34C957.38 1206.34 1206.7 957.229 1206.7 649.93C1206.7 342.631 957.38 93.5166 649.824 93.5166C342.268 93.5166 92.9434 342.631 92.9434 649.93C92.9434 957.229 342.268 1206.34 649.824 1206.34Z" stroke="white" stroke-width="4.77067"/>
<path d="M672.767 362.126C672.767 362.126 650.585 356.031 650.585 333.735C650.585 356.031 628.405 362.126 628.405 362.126H672.767Z" fill="white"/>
<path d="M997.847 467.755C997.847 467.755 988.974 437.658 1014.79 421.613C988.93 437.68 965.861 416.382 965.861 416.382L997.847 467.755Z" fill="white"/>
<path d="M830.824 994.823C830.824 994.823 860.947 985.958 877.028 1011.76C860.947 985.914 882.263 962.887 882.263 962.887L830.824 994.823Z" fill="white"/>
<path d="M303.315 827.938C303.315 827.938 312.188 858.034 286.369 874.103C312.232 858.034 335.168 879.333 335.168 879.333L303.315 827.938Z" fill="white"/>
<path d="M1144.04 686.12C1144.04 686.12 1154.58 647.845 1193.11 647.845C1154.58 647.845 1144.04 609.57 1144.04 609.57V686.12Z" fill="white"/>
<path d="M157.116 609.57C157.116 609.57 146.581 647.845 108.052 647.845C146.581 647.845 157.116 686.12 157.116 686.12V609.57Z" fill="white"/>
<path d="M303.315 467.755C303.315 467.755 312.188 437.658 286.369 421.613C312.232 437.68 335.168 416.382 335.168 416.382L303.315 467.755Z" fill="white"/>
<path d="M470.332 994.823C470.332 994.823 440.211 985.958 424.129 1011.76C440.211 985.914 418.895 962.887 418.895 962.887L470.332 994.823Z" fill="white"/>
<path d="M997.847 827.938C997.847 827.938 988.974 858.034 1014.79 874.103C988.93 858.034 965.861 879.333 965.861 879.333L997.847 827.938Z" fill="white"/>
<path d="M650.586 1037.42C748.444 1037.34 842.675 1000.4 914.485 933.974C986.294 867.55 1030.4 776.519 1038.02 679.039C1045.63 581.558 1016.19 484.792 955.565 408.04C894.939 331.288 807.585 280.19 710.924 264.938C614.263 249.686 515.4 271.4 434.052 325.75C352.705 380.1 294.851 463.092 272.03 558.171C249.208 653.252 263.098 753.435 310.925 838.737C358.753 924.041 437.006 988.195 530.076 1018.41C568.997 1031.03 609.666 1037.44 650.586 1037.42Z" stroke="white" stroke-width="4.77067" stroke-miterlimit="10"/>
<path d="M650.581 933.567C722.302 933.491 791.359 906.407 843.981 857.714C896.602 809.023 928.92 742.302 934.491 670.857C940.061 599.413 918.475 528.495 874.036 472.248C829.596 416.001 765.57 378.557 694.726 367.385C623.882 356.212 551.427 372.131 491.809 411.967C432.191 451.803 389.792 512.63 373.067 582.315C356.343 652.001 366.523 725.424 401.575 787.943C436.628 850.462 493.978 897.483 562.19 919.627C590.736 928.891 620.567 933.596 650.581 933.567Z" stroke="black" stroke-width="1.192" stroke-miterlimit="10"/>
<path d="M650.873 485.218L663.228 333.449L663.627 485.706L687.871 335.378L676.337 487.213L712.293 339.256L688.869 489.717L736.359 345.018L701.179 493.175L759.871 352.664L713.157 497.608L782.717 362.105L724.758 502.948L804.743 373.319L735.915 509.176L825.838 386.24L746.54 516.29L845.845 400.757L756.588 524.18L864.633 416.803L765.971 532.868L882.133 434.267L774.644 542.243L898.193 453.06L782.563 552.26L912.721 473.051L789.66 562.875L925.63 494.128L795.916 574.023L936.854 516.135L801.261 585.636L946.326 538.963L805.697 597.604L953.979 562.455L809.158 609.905L959.745 586.479L811.642 622.427L963.605 610.88L813.15 635.104L965.557 635.525L813.66 647.87L965.557 660.236L813.15 660.635L963.605 684.859L811.642 673.312L959.745 709.259L809.158 685.834L953.979 733.283L805.697 698.134L946.326 756.776L801.261 710.124L936.854 779.603L795.916 721.715L925.63 801.633L789.66 732.863L912.721 822.687L782.563 743.479L898.193 842.678L774.644 753.518L882.133 861.473L765.971 762.893L864.633 878.937L756.588 771.558L845.845 894.982L746.54 779.47L825.838 909.499L735.915 786.563L804.743 922.419L724.758 792.79L782.717 933.634L713.157 798.154L759.871 943.097L701.179 802.564L736.359 950.721L688.869 806.043L712.293 956.483L676.337 808.525L687.871 960.362L663.627 810.032L663.228 962.289L650.873 810.52L638.496 962.289L638.097 810.032L613.853 960.362L625.387 808.525L589.432 956.483L612.854 806.043L565.387 950.721L600.566 802.564L541.852 943.097L588.566 798.154L519.006 933.634L576.966 792.79L496.98 922.419L565.808 786.563L475.908 909.499L555.184 779.47L455.878 894.982L545.136 771.558L437.091 878.937L535.752 762.893L419.612 861.473L527.08 753.518L403.553 842.678L519.162 743.479L389.003 822.687L512.064 732.863L376.093 801.633L505.809 721.715L364.869 779.603L500.463 710.124L355.398 756.776L496.027 698.134L347.746 733.283L492.566 685.834L341.978 709.259L490.082 673.312L338.119 684.859L488.573 660.635L336.167 660.236L488.063 647.87L336.167 635.525L488.573 635.104L338.119 610.88L490.082 622.427L341.978 586.479L492.566 609.905L347.746 562.455L496.027 597.604L355.398 538.963L500.463 585.636L364.869 516.135L505.809 574.023L376.093 494.128L512.064 562.875L389.003 473.051L519.162 552.26L403.553 453.06L527.08 542.243L419.612 434.267L535.752 532.868L437.091 416.803L545.136 524.18L455.878 400.757L555.184 516.29L475.908 386.24L565.808 509.176L496.98 373.319L576.966 502.948L519.006 362.105L588.566 497.608L541.852 352.664L600.566 493.175L565.387 345.018L612.854 489.717L589.432 339.256L625.387 487.213L613.853 335.378L638.097 485.706L638.496 333.449L650.873 485.218Z" fill="black"/>
<path d="M650.873 485.218L663.228 333.449L663.627 485.706L687.871 335.378L676.337 487.213L712.293 339.256L688.869 489.717L736.359 345.018L701.179 493.175L759.871 352.664L713.157 497.608L782.718 362.105L724.758 502.948L804.743 373.319L735.915 509.176L825.838 386.24L746.54 516.29L845.845 400.757L756.588 524.18L864.633 416.803L765.971 532.868L882.133 434.267L774.644 542.243L898.193 453.06L782.563 552.26L912.721 473.051L789.66 562.875L925.63 494.128L795.916 574.024L936.854 516.135L801.261 585.636L946.326 538.963L805.697 597.604L953.979 562.455L809.158 609.905L959.745 586.479L811.642 622.427L963.605 610.88L813.15 635.104L965.557 635.525L813.66 647.87L965.557 660.236L813.15 660.635L963.605 684.859L811.642 673.312L959.745 709.259L809.158 685.834L953.979 733.283L805.697 698.134L946.326 756.776L801.261 710.124L936.854 779.603L795.916 721.715L925.63 801.633L789.66 732.863L912.721 822.687L782.563 743.479L898.193 842.678L774.644 753.518L882.133 861.473L765.971 762.893L864.633 878.937L756.588 771.558L845.845 894.982L746.54 779.47L825.838 909.499L735.915 786.563L804.743 922.419L724.758 792.79L782.718 933.634L713.157 798.154L759.871 943.097L701.179 802.564L736.359 950.721L688.869 806.043L712.293 956.483L676.337 808.525L687.871 960.362L663.627 810.032L663.228 962.289L650.873 810.52L638.496 962.289L638.097 810.032L613.853 960.362L625.387 808.525L589.432 956.483L612.854 806.043L565.387 950.721L600.566 802.564L541.852 943.097L588.566 798.154L519.006 933.634L576.966 792.79L496.98 922.419L565.808 786.563L475.908 909.499L555.184 779.47L455.878 894.982L545.136 771.558L437.091 878.937L535.752 762.893L419.612 861.473L527.08 753.518L403.553 842.678L519.162 743.479L389.003 822.687L512.064 732.863L376.093 801.633L505.809 721.715L364.869 779.603L500.463 710.124L355.398 756.776L496.027 698.134L347.746 733.283L492.566 685.834L341.978 709.259L490.082 673.312L338.119 684.859L488.573 660.635L336.167 660.236L488.063 647.87L336.167 635.525L488.573 635.104L338.119 610.88L490.082 622.427L341.978 586.479L492.566 609.905L347.746 562.455L496.027 597.604L355.398 538.963L500.463 585.636L364.869 516.135L505.809 574.024L376.093 494.128L512.064 562.875L389.003 473.051L519.162 552.26L403.553 453.06L527.08 542.243L419.612 434.267L535.752 532.868L437.091 416.803L545.136 524.18L455.878 400.757L555.184 516.29L475.908 386.24L565.808 509.176L496.98 373.319L576.966 502.948L519.006 362.105L588.566 497.608L541.852 352.664L600.566 493.175L565.387 345.018L612.854 489.717L589.432 339.256L625.387 487.213L613.853 335.378L638.097 485.706L638.496 333.449L650.873 485.218Z" stroke="white" stroke-width="4.77067"/>
<path d="M1139.5 647.692C1057 642.971 1050.55 518.041 1050.55 518.041L996.603 535.527C1020.49 628.766 901.668 645.853 886.141 647.67H884.456H885.254H884.456H886.141C901.668 649.487 1020.49 666.575 996.603 759.812L1050.48 777.299C1050.48 777.299 1056.94 652.368 1139.42 647.647H1138.45L1139.5 647.692Z" fill="white"/>
<path d="M161.623 647.849C161.747 647.856 161.871 647.863 161.996 647.87C244.134 642.797 250.547 518.242 250.547 518.242L304.426 535.728C280.558 628.966 399.382 646.053 414.909 647.87C399.382 649.689 280.558 666.776 304.426 760.013L250.547 777.499C250.547 777.499 244.134 652.945 161.996 647.87C161.871 647.878 161.747 647.886 161.623 647.893V647.849Z" fill="white"/>
<path d="M374.672 923.174C458.96 838.956 532.293 879.18 532.293 879.18C480.346 827.275 608.817 689.847 642.509 655.561C608.195 689.226 470.647 817.592 418.699 765.688C418.699 765.688 458.916 839.022 374.672 923.174Z" fill="white"/>
<path d="M925.873 923.041C841.629 838.889 881.841 765.553 881.841 765.553C829.892 817.459 692.349 689.093 658.036 655.428C691.729 689.625 820.205 827.054 768.255 879.049C768.255 879.049 841.629 838.868 925.873 923.041Z" fill="white"/>
<path d="M658.215 639.869C692.508 606.204 829.103 476.885 881.05 528.879C881.05 528.879 840.832 455.542 925.076 371.369C840.832 455.542 767.432 415.362 767.432 415.362C819.402 467.266 691.909 605.605 658.215 639.869Z" fill="white"/>
<path d="M642.491 639.936C608.798 605.651 480.328 468.222 532.275 416.317C532.275 416.317 458.876 456.496 374.654 372.323C458.898 456.496 418.682 529.809 418.682 529.809C470.63 477.904 608.177 606.272 642.491 639.936Z" fill="white"/>
<path d="M894.503 986.996C893.755 987.308 892.84 987.697 891.777 988.161C888.59 989.555 884.068 991.632 878.711 994.375C868.002 999.856 853.921 1008.01 840.482 1018.7C816.63 1037.67 794.361 1065.01 797.39 1099.75C779.42 1069.82 745.333 1060.76 714.881 1059.41C697.729 1058.65 681.543 1060.32 669.659 1062.17C663.714 1063.1 658.834 1064.07 655.437 1064.82C654.408 1065.04 651.711 1065.25 650.639 1065.42C650.495 1065.44 650.371 1065.33 650.371 1065.19V1013.17C673.871 1011.31 692.713 1002.72 704.34 990.468C716.227 977.937 722.706 961.73 726.014 945.398C730.776 921.886 729.022 897.815 727.099 883.313C734.063 896.178 746.794 916.694 764.471 932.933C776.746 944.209 791.517 953.526 808.502 956.69C825.115 959.785 843.649 956.957 863.76 944.669L894.503 986.996Z" fill="black"/>
<path d="M894.503 986.996C893.755 987.308 892.84 987.697 891.777 988.161C888.59 989.555 884.068 991.632 878.711 994.375C868.002 999.856 853.921 1008.01 840.482 1018.7C816.63 1037.67 794.361 1065.01 797.39 1099.75C779.42 1069.82 745.333 1060.76 714.881 1059.41C697.729 1058.65 681.543 1060.32 669.659 1062.17C663.714 1063.1 658.834 1064.07 655.437 1064.82C654.408 1065.04 651.711 1065.25 650.639 1065.42C650.495 1065.44 650.371 1065.33 650.371 1065.19V1013.17C673.871 1011.31 692.713 1002.72 704.34 990.468C716.227 977.937 722.706 961.73 726.014 945.398C730.776 921.886 729.022 897.815 727.099 883.313C734.063 896.178 746.794 916.694 764.471 932.933C776.746 944.209 791.517 953.526 808.502 956.69C825.115 959.785 843.649 956.957 863.76 944.669L894.503 986.996Z" stroke="white" stroke-width="4.77067"/>
<path d="M460.621 276.841C484.482 257.862 506.761 230.509 503.713 195.737C521.676 225.709 555.785 234.779 586.252 236.13C603.405 236.891 619.59 235.224 631.475 233.372C637.42 232.444 642.3 231.47 645.697 230.726C646.828 230.478 647.796 230.256 648.584 230.07V282.347C625.084 284.214 608.42 292.806 596.791 305.065C584.902 317.597 578.421 333.806 575.111 350.138C570.35 373.646 572.1 397.709 574.027 412.208C567.061 399.339 554.332 378.832 536.661 362.601C524.383 351.325 509.61 342.011 492.622 338.848C476.005 335.755 457.469 338.585 437.352 350.874L406.608 308.546C407.357 308.233 408.271 307.844 409.333 307.381C412.52 305.987 417.041 303.91 422.398 301.167C433.104 295.686 447.184 287.53 460.621 276.841Z" fill="black"/>
<path d="M460.621 276.841C484.482 257.862 506.761 230.509 503.713 195.737C521.676 225.709 555.785 234.779 586.252 236.13C603.405 236.891 619.59 235.224 631.475 233.372C637.42 232.444 642.3 231.47 645.697 230.726C646.828 230.478 647.796 230.256 648.584 230.07V282.347C625.084 284.214 608.42 292.806 596.791 305.065C584.902 317.597 578.421 333.806 575.112 350.138C570.35 373.646 572.1 397.709 574.027 412.208C567.061 399.339 554.332 378.832 536.661 362.601C524.383 351.325 509.61 342.011 492.622 338.848C476.005 335.755 457.469 338.585 437.352 350.874L406.608 308.546C407.357 308.233 408.271 307.844 409.333 307.381C412.52 305.987 417.041 303.91 422.398 301.167C433.104 295.686 447.184 287.53 460.621 276.841Z" stroke="white" stroke-width="4.77067"/>
<path d="M409.006 988.007C407.945 987.544 407.031 987.154 406.283 986.842L437.023 944.559C457.129 956.879 475.664 959.732 492.283 956.653C509.273 953.505 524.054 944.198 536.339 932.925C554.02 916.7 566.763 896.194 573.737 883.32C571.802 897.813 570.034 921.86 574.774 945.356C578.07 961.685 584.537 977.896 596.414 990.432C608.034 1002.7 627.005 1011.29 650.507 1013.17V1064.87C650.507 1065.21 650.214 1065.48 649.875 1065.43C648.619 1065.27 646.239 1065.08 645.312 1064.88C641.917 1064.13 637.041 1063.15 631.099 1062.21C619.225 1060.34 603.05 1058.66 585.903 1059.4C555.43 1060.71 521.302 1069.75 503.307 1099.75C506.393 1064.94 484.131 1037.56 460.276 1018.57C446.846 1007.87 432.771 999.709 422.068 994.224C416.713 991.481 412.193 989.402 409.006 988.007Z" fill="black"/>
<path d="M409.006 988.007C407.945 987.544 407.031 987.154 406.283 986.842L437.023 944.559C457.129 956.879 475.664 959.732 492.283 956.653C509.273 953.505 524.054 944.198 536.339 932.925C554.02 916.7 566.763 896.194 573.737 883.32C571.802 897.813 570.034 921.86 574.774 945.356C578.07 961.685 584.537 977.896 596.414 990.432C608.034 1002.7 627.005 1011.29 650.507 1013.17V1064.87C650.507 1065.21 650.214 1065.48 649.875 1065.43C648.619 1065.27 646.239 1065.08 645.312 1064.88C641.917 1064.13 637.041 1063.15 631.099 1062.21C619.225 1060.34 603.05 1058.66 585.903 1059.4C555.43 1060.71 521.302 1069.75 503.307 1099.75C506.393 1064.94 484.131 1037.56 460.276 1018.57C446.846 1007.87 432.771 999.709 422.068 994.224C416.713 991.481 412.193 989.402 409.006 988.007Z" stroke="white" stroke-width="4.77067"/>
<path d="M764.778 362.549C747.08 378.788 734.33 399.319 727.36 412.189C729.302 397.7 731.077 373.633 726.332 350.118C723.038 333.788 716.57 317.578 704.693 305.041C693.075 292.779 676.422 284.179 652.926 282.303V230.004C653.713 230.192 654.678 230.415 655.806 230.664C659.201 231.412 664.077 232.393 670.018 233.327C681.893 235.195 698.067 236.882 715.215 236.142C745.699 234.827 779.84 225.782 797.829 195.761C794.761 230.551 817.011 257.918 840.853 276.908C854.28 287.604 868.352 295.764 879.053 301.249C884.408 303.993 888.926 306.072 892.112 307.465C893.173 307.93 894.087 308.319 894.835 308.63L864.095 350.914C843.989 338.594 825.454 335.741 808.835 338.82C791.844 341.968 777.064 351.276 764.778 362.549Z" fill="black"/>
<path d="M764.778 362.549C747.08 378.788 734.33 399.319 727.36 412.189C729.302 397.7 731.077 373.633 726.332 350.118C723.038 333.788 716.57 317.578 704.693 305.041C693.075 292.779 676.422 284.179 652.926 282.303V230.004C653.713 230.192 654.678 230.415 655.806 230.664C659.201 231.412 664.077 232.393 670.018 233.327C681.893 235.195 698.067 236.882 715.215 236.142C745.699 234.827 779.84 225.782 797.829 195.761C794.761 230.551 817.011 257.918 840.853 276.908C854.28 287.604 868.352 295.764 879.053 301.249C884.407 303.993 888.926 306.072 892.112 307.465C893.173 307.93 894.087 308.319 894.835 308.63L864.095 350.914C843.989 338.594 825.454 335.741 808.835 338.82C791.844 341.968 777.064 351.276 764.778 362.549Z" stroke="white" stroke-width="4.77067"/>
<path d="M650.59 1143.33C728.839 1143.3 805.974 1124.78 875.691 1089.29C945.41 1053.78 1005.73 1002.3 1051.73 939.054C1097.73 875.805 1128.1 802.58 1140.36 725.361C1152.62 648.143 1146.42 569.121 1122.27 494.754C1098.12 420.348 1056.69 352.714 1001.35 297.389C946.013 242.065 878.347 200.623 803.894 176.457C729.44 152.292 650.316 146.091 573.003 158.361C495.688 170.631 422.383 201.023 359.088 247.05C274.313 308.522 211.204 395.242 178.811 494.77C146.419 594.298 146.408 701.521 178.78 801.056C211.153 900.591 274.245 987.323 359.006 1048.81C443.768 1110.3 545.843 1143.39 650.59 1143.33Z" stroke="white" stroke-width="4.77067" stroke-miterlimit="10"/>
<path d="M811.247 1141.92C811.247 1141.92 873.355 1125.45 956.112 1068.07C956.112 1068.07 822.871 911.806 792.971 925.214C763.07 938.622 811.247 1141.92 811.247 1141.92Z" fill="white"/>
<path d="M779.229 252.624C652.797 208.098 650.689 102.494 650.689 102.494C650.689 102.494 648.671 208.098 522.15 252.624C522.15 252.624 456.649 272.836 406.231 311.708L421.514 332.763C421.514 332.763 446.801 306.633 530.202 277.356C530.202 277.356 650.667 226.604 650.667 544.038C650.579 226.56 771.044 277.423 771.044 277.423C854.468 306.745 879.732 332.829 879.732 332.829L895.015 311.775C844.619 272.836 779.229 252.624 779.229 252.624Z" fill="white"/>
<path d="M650.581 855.602C679.283 855.602 702.55 832.353 702.55 803.675C702.55 774.996 679.283 751.747 650.581 751.747C621.878 751.747 598.61 774.996 598.61 803.675C598.61 832.353 621.878 855.602 650.581 855.602Z" fill="white"/>
<path d="M650.577 1167.07C650.577 1167.07 714.769 1170.93 811.302 1142.31C811.302 1142.31 733.801 952.23 701.194 955.575C668.588 958.922 650.577 1167.07 650.577 1167.07Z" fill="white"/>
<path d="M489.861 1141.92C489.861 1141.92 427.754 1125.45 344.996 1068.07C344.996 1068.07 478.238 911.806 508.138 925.214C538.038 938.622 489.861 1141.92 489.861 1141.92Z" fill="white"/>
<path d="M650.585 1167.07C650.585 1167.07 586.369 1170.93 489.838 1142.31C489.838 1142.31 567.472 952.23 599.966 955.575C632.462 958.922 650.585 1167.07 650.585 1167.07Z" fill="white"/>
<path d="M1091.44 421.29C1090.92 420.217 1090.17 418.715 1089.19 416.876C1087.12 413.008 1084.01 407.639 1079.87 401.619C1071.58 389.597 1059.07 374.884 1042.22 364.367C1025.33 353.824 1004.09 347.506 978.508 352.333C959.422 355.935 938.041 365.72 914.332 384.392C933.013 360.716 942.804 339.361 946.409 320.295C951.242 294.743 944.922 273.518 934.374 256.638C923.852 239.797 909.133 227.286 897.105 219.004C891.081 214.856 885.71 211.753 881.839 209.683C879.999 208.7 878.497 207.95 877.423 207.431L899.167 164.777C939.965 185.052 973.712 209.532 997.388 229.073C1009.39 238.98 1018.8 247.612 1025.22 253.774C1028.43 256.855 1030.89 259.32 1032.55 261.018C1033.39 261.866 1034.02 262.523 1034.45 262.972C1034.61 263.134 1034.73 263.268 1034.84 263.376C1034.88 263.417 1034.91 263.454 1034.95 263.488C1035 263.547 1035.05 263.597 1035.08 263.634C1035.1 263.651 1035.12 263.673 1035.14 263.692C1035.15 263.702 1035.17 263.717 1035.19 263.735L1035.19 263.737C1075.35 303.338 1108.76 349.22 1134.12 399.569L1091.44 421.29Z" fill="black"/>
<path d="M1091.44 421.29C1090.92 420.217 1090.17 418.715 1089.19 416.876C1087.12 413.008 1084.01 407.639 1079.87 401.619C1071.58 389.597 1059.07 374.884 1042.22 364.367C1025.33 353.824 1004.09 347.506 978.508 352.333C959.422 355.935 938.041 365.72 914.332 384.392C933.013 360.716 942.804 339.361 946.409 320.295C951.242 294.743 944.922 273.518 934.374 256.638C923.852 239.797 909.133 227.286 897.105 219.004C891.081 214.856 885.71 211.753 881.839 209.683C879.999 208.7 878.497 207.95 877.423 207.431L899.167 164.777C939.965 185.052 973.712 209.532 997.388 229.073C1009.39 238.98 1018.8 247.612 1025.22 253.774C1028.43 256.855 1030.89 259.32 1032.55 261.018C1033.39 261.866 1034.02 262.523 1034.45 262.972C1034.61 263.134 1034.73 263.268 1034.84 263.376C1034.88 263.417 1034.91 263.454 1034.95 263.488C1035 263.547 1035.05 263.597 1035.08 263.634C1035.1 263.651 1035.12 263.673 1035.14 263.692C1035.15 263.702 1035.17 263.717 1035.19 263.735L1035.19 263.737C1075.35 303.338 1108.76 349.22 1134.12 399.569L1091.44 421.29Z" stroke="white" stroke-width="4.77067"/>
<path d="M167.023 896.353L209.687 874.651C210.206 875.724 210.956 877.226 211.939 879.064C214.009 882.932 217.112 888.3 221.261 894.318C229.545 906.338 242.061 921.048 258.91 931.562C275.801 942.103 297.041 948.418 322.618 943.589C341.704 939.985 363.085 930.199 386.794 911.527C368.114 935.203 358.323 956.558 354.717 975.624C349.885 1001.18 356.206 1022.4 366.753 1039.28C377.275 1056.12 391.994 1068.63 404.022 1076.92C410.045 1081.06 415.417 1084.17 419.288 1086.23C421.127 1087.22 422.63 1087.97 423.704 1088.49L401.961 1131.14C322.503 1091.55 269.996 1036.23 266.272 1032.31C266.144 1032.17 266.073 1032.1 266.062 1032.09C266.063 1032.09 262.379 1028.69 256.2 1022.28C250.031 1015.88 241.388 1006.49 231.468 994.501C211.895 970.853 187.368 937.129 167.023 896.353Z" fill="black"/>
<path d="M167.023 896.353L209.687 874.651C210.206 875.724 210.956 877.226 211.939 879.064C214.009 882.932 217.112 888.3 221.261 894.318C229.545 906.338 242.061 921.048 258.91 931.562C275.801 942.103 297.041 948.418 322.618 943.589C341.704 939.985 363.085 930.199 386.794 911.527C368.114 935.203 358.323 956.558 354.717 975.624C349.885 1001.18 356.206 1022.4 366.753 1039.28C377.275 1056.12 391.994 1068.63 404.022 1076.92C410.045 1081.06 415.417 1084.17 419.288 1086.23C421.127 1087.22 422.63 1087.97 423.704 1088.49L401.961 1131.14C322.503 1091.55 269.996 1036.23 266.272 1032.31C266.144 1032.17 266.073 1032.1 266.062 1032.09C266.063 1032.09 262.379 1028.69 256.2 1022.28C250.031 1015.88 241.388 1006.49 231.468 994.501C211.895 970.853 187.368 937.129 167.023 896.353Z" stroke="white" stroke-width="4.77067"/>
<path d="M401.952 164.647L423.635 207.361C422.559 207.879 421.057 208.629 419.214 209.614C415.342 211.68 409.969 214.781 403.944 218.927C391.912 227.204 377.187 239.709 366.662 256.544C356.109 273.421 349.787 294.644 354.617 320.2C358.222 339.27 368.015 360.634 386.703 384.322C363.007 365.657 341.634 355.875 322.552 352.272C296.978 347.444 275.736 353.758 258.841 364.296C241.987 374.809 229.466 389.517 221.176 401.536C217.024 407.553 213.919 412.92 211.848 416.788C210.864 418.626 210.112 420.128 209.594 421.201L166.906 399.476C206.533 320.079 261.963 267.533 265.888 263.812C266.023 263.683 266.097 263.614 266.107 263.602L264.65 262.308L266.107 263.602H266.108C266.162 263.543 269.559 259.873 275.925 253.748C282.334 247.585 291.735 238.95 303.734 229.036C327.404 209.481 361.155 184.976 401.952 164.647Z" fill="black"/>
<path d="M401.952 164.647L423.635 207.361C422.559 207.879 421.057 208.629 419.214 209.614C415.342 211.68 409.969 214.781 403.944 218.927C391.912 227.204 377.187 239.709 366.662 256.544C356.109 273.421 349.787 294.644 354.617 320.2C358.222 339.27 368.015 360.634 386.703 384.322C363.007 365.657 341.634 355.875 322.552 352.272C296.978 347.444 275.736 353.758 258.841 364.296C241.987 374.809 229.466 389.517 221.176 401.536C217.024 407.553 213.919 412.92 211.848 416.788C210.864 418.626 210.112 420.128 209.594 421.201L166.906 399.476C206.533 320.079 261.963 267.533 265.888 263.812C266.023 263.683 266.097 263.614 266.107 263.602L264.65 262.308L266.107 263.602H266.108C266.162 263.543 269.559 259.873 275.925 253.748C282.334 247.585 291.735 238.95 303.734 229.036C327.404 209.481 361.155 184.976 401.952 164.647Z" stroke="white" stroke-width="4.77067"/>
<path d="M877.529 1088.42C878.604 1087.9 880.106 1087.15 881.946 1086.17C885.817 1084.11 891.19 1081 897.213 1076.86C909.244 1068.58 923.965 1056.08 934.488 1039.24C945.038 1022.36 951.358 1001.14 946.525 975.586C942.918 956.518 933.126 935.158 914.441 911.471C938.131 930.132 959.499 939.912 978.577 943.514C1004.15 948.342 1025.39 942.028 1042.29 931.488C1059.14 920.976 1071.67 906.269 1079.96 894.25C1084.11 888.232 1087.22 882.866 1089.29 878.997C1090.28 877.159 1091.03 875.658 1091.54 874.585L1134.24 896.31C1094.6 975.703 1039.24 1028.17 1035.32 1031.88C1035.18 1032.01 1035.11 1032.08 1035.1 1032.09L1036.55 1033.39L1035.1 1032.09C1035.06 1032.14 1031.66 1035.81 1025.28 1041.95C1018.88 1048.11 1009.48 1056.75 997.482 1066.66C973.816 1086.22 940.07 1110.73 899.272 1131.05L877.529 1088.42Z" fill="black"/>
<path d="M877.529 1088.42C878.604 1087.9 880.106 1087.15 881.946 1086.17C885.817 1084.11 891.19 1081 897.213 1076.86C909.244 1068.58 923.965 1056.08 934.488 1039.24C945.038 1022.36 951.358 1001.14 946.525 975.586C942.918 956.518 933.126 935.158 914.441 911.471C938.131 930.132 959.499 939.912 978.577 943.514C1004.15 948.342 1025.39 942.028 1042.29 931.488C1059.14 920.976 1071.67 906.269 1079.96 894.25C1084.11 888.232 1087.22 882.866 1089.29 878.997C1090.28 877.159 1091.03 875.658 1091.54 874.585L1134.24 896.31C1094.6 975.703 1039.24 1028.17 1035.32 1031.88C1035.18 1032.01 1035.11 1032.08 1035.1 1032.09L1036.55 1033.39L1035.1 1032.09C1035.06 1032.14 1031.66 1035.81 1025.28 1041.95C1018.88 1048.11 1009.48 1056.75 997.482 1066.66C973.816 1086.22 940.07 1110.73 899.272 1131.05L877.529 1088.42Z" stroke="white" stroke-width="4.77067"/>
</g>
<defs>
<clipPath id="clip0_1_3391">
<rect width="1300" height="1300" fill="white"/>
</clipPath>
</defs>
</svg>
